%TF.GenerationSoftware,KiCad,Pcbnew,7.0.1-0*%
%TF.CreationDate,2023-04-24T12:32:45-04:00*%
%TF.ProjectId,tempLogger_clientPCB,74656d70-4c6f-4676-9765-725f636c6965,rev?*%
%TF.SameCoordinates,Original*%
%TF.FileFunction,Legend,Bot*%
%TF.FilePolarity,Positive*%
%FSLAX46Y46*%
G04 Gerber Fmt 4.6, Leading zero omitted, Abs format (unit mm)*
G04 Created by KiCad (PCBNEW 7.0.1-0) date 2023-04-24 12:32:45*
%MOMM*%
%LPD*%
G01*
G04 APERTURE LIST*
%ADD10C,0.150000*%
%ADD11C,0.100000*%
%ADD12C,0.120000*%
G04 APERTURE END LIST*
D10*
%TO.C,C3*%
X116247380Y-120503333D02*
X116295000Y-120455714D01*
X116295000Y-120455714D02*
X116342619Y-120312857D01*
X116342619Y-120312857D02*
X116342619Y-120217619D01*
X116342619Y-120217619D02*
X116295000Y-120074762D01*
X116295000Y-120074762D02*
X116199761Y-119979524D01*
X116199761Y-119979524D02*
X116104523Y-119931905D01*
X116104523Y-119931905D02*
X115914047Y-119884286D01*
X115914047Y-119884286D02*
X115771190Y-119884286D01*
X115771190Y-119884286D02*
X115580714Y-119931905D01*
X115580714Y-119931905D02*
X115485476Y-119979524D01*
X115485476Y-119979524D02*
X115390238Y-120074762D01*
X115390238Y-120074762D02*
X115342619Y-120217619D01*
X115342619Y-120217619D02*
X115342619Y-120312857D01*
X115342619Y-120312857D02*
X115390238Y-120455714D01*
X115390238Y-120455714D02*
X115437857Y-120503333D01*
X115342619Y-120836667D02*
X115342619Y-121455714D01*
X115342619Y-121455714D02*
X115723571Y-121122381D01*
X115723571Y-121122381D02*
X115723571Y-121265238D01*
X115723571Y-121265238D02*
X115771190Y-121360476D01*
X115771190Y-121360476D02*
X115818809Y-121408095D01*
X115818809Y-121408095D02*
X115914047Y-121455714D01*
X115914047Y-121455714D02*
X116152142Y-121455714D01*
X116152142Y-121455714D02*
X116247380Y-121408095D01*
X116247380Y-121408095D02*
X116295000Y-121360476D01*
X116295000Y-121360476D02*
X116342619Y-121265238D01*
X116342619Y-121265238D02*
X116342619Y-120979524D01*
X116342619Y-120979524D02*
X116295000Y-120884286D01*
X116295000Y-120884286D02*
X116247380Y-120836667D01*
%TO.C,C2*%
X110137380Y-120503333D02*
X110185000Y-120455714D01*
X110185000Y-120455714D02*
X110232619Y-120312857D01*
X110232619Y-120312857D02*
X110232619Y-120217619D01*
X110232619Y-120217619D02*
X110185000Y-120074762D01*
X110185000Y-120074762D02*
X110089761Y-119979524D01*
X110089761Y-119979524D02*
X109994523Y-119931905D01*
X109994523Y-119931905D02*
X109804047Y-119884286D01*
X109804047Y-119884286D02*
X109661190Y-119884286D01*
X109661190Y-119884286D02*
X109470714Y-119931905D01*
X109470714Y-119931905D02*
X109375476Y-119979524D01*
X109375476Y-119979524D02*
X109280238Y-120074762D01*
X109280238Y-120074762D02*
X109232619Y-120217619D01*
X109232619Y-120217619D02*
X109232619Y-120312857D01*
X109232619Y-120312857D02*
X109280238Y-120455714D01*
X109280238Y-120455714D02*
X109327857Y-120503333D01*
X109327857Y-120884286D02*
X109280238Y-120931905D01*
X109280238Y-120931905D02*
X109232619Y-121027143D01*
X109232619Y-121027143D02*
X109232619Y-121265238D01*
X109232619Y-121265238D02*
X109280238Y-121360476D01*
X109280238Y-121360476D02*
X109327857Y-121408095D01*
X109327857Y-121408095D02*
X109423095Y-121455714D01*
X109423095Y-121455714D02*
X109518333Y-121455714D01*
X109518333Y-121455714D02*
X109661190Y-121408095D01*
X109661190Y-121408095D02*
X110232619Y-120836667D01*
X110232619Y-120836667D02*
X110232619Y-121455714D01*
%TO.C,C1*%
X104027380Y-120503333D02*
X104075000Y-120455714D01*
X104075000Y-120455714D02*
X104122619Y-120312857D01*
X104122619Y-120312857D02*
X104122619Y-120217619D01*
X104122619Y-120217619D02*
X104075000Y-120074762D01*
X104075000Y-120074762D02*
X103979761Y-119979524D01*
X103979761Y-119979524D02*
X103884523Y-119931905D01*
X103884523Y-119931905D02*
X103694047Y-119884286D01*
X103694047Y-119884286D02*
X103551190Y-119884286D01*
X103551190Y-119884286D02*
X103360714Y-119931905D01*
X103360714Y-119931905D02*
X103265476Y-119979524D01*
X103265476Y-119979524D02*
X103170238Y-120074762D01*
X103170238Y-120074762D02*
X103122619Y-120217619D01*
X103122619Y-120217619D02*
X103122619Y-120312857D01*
X103122619Y-120312857D02*
X103170238Y-120455714D01*
X103170238Y-120455714D02*
X103217857Y-120503333D01*
X104122619Y-121455714D02*
X104122619Y-120884286D01*
X104122619Y-121170000D02*
X103122619Y-121170000D01*
X103122619Y-121170000D02*
X103265476Y-121074762D01*
X103265476Y-121074762D02*
X103360714Y-120979524D01*
X103360714Y-120979524D02*
X103408333Y-120884286D01*
%TO.C,U1*%
X149581904Y-117212619D02*
X149581904Y-118022142D01*
X149581904Y-118022142D02*
X149534285Y-118117380D01*
X149534285Y-118117380D02*
X149486666Y-118165000D01*
X149486666Y-118165000D02*
X149391428Y-118212619D01*
X149391428Y-118212619D02*
X149200952Y-118212619D01*
X149200952Y-118212619D02*
X149105714Y-118165000D01*
X149105714Y-118165000D02*
X149058095Y-118117380D01*
X149058095Y-118117380D02*
X149010476Y-118022142D01*
X149010476Y-118022142D02*
X149010476Y-117212619D01*
X148010476Y-118212619D02*
X148581904Y-118212619D01*
X148296190Y-118212619D02*
X148296190Y-117212619D01*
X148296190Y-117212619D02*
X148391428Y-117355476D01*
X148391428Y-117355476D02*
X148486666Y-117450714D01*
X148486666Y-117450714D02*
X148581904Y-117498333D01*
D11*
%TO.C,BT1*%
X139714285Y-94041190D02*
X139857142Y-93993571D01*
X139857142Y-93993571D02*
X139904761Y-93945952D01*
X139904761Y-93945952D02*
X139952380Y-93850714D01*
X139952380Y-93850714D02*
X139952380Y-93707857D01*
X139952380Y-93707857D02*
X139904761Y-93612619D01*
X139904761Y-93612619D02*
X139857142Y-93565000D01*
X139857142Y-93565000D02*
X139761904Y-93517380D01*
X139761904Y-93517380D02*
X139380952Y-93517380D01*
X139380952Y-93517380D02*
X139380952Y-94517380D01*
X139380952Y-94517380D02*
X139714285Y-94517380D01*
X139714285Y-94517380D02*
X139809523Y-94469761D01*
X139809523Y-94469761D02*
X139857142Y-94422142D01*
X139857142Y-94422142D02*
X139904761Y-94326904D01*
X139904761Y-94326904D02*
X139904761Y-94231666D01*
X139904761Y-94231666D02*
X139857142Y-94136428D01*
X139857142Y-94136428D02*
X139809523Y-94088809D01*
X139809523Y-94088809D02*
X139714285Y-94041190D01*
X139714285Y-94041190D02*
X139380952Y-94041190D01*
X140238095Y-94517380D02*
X140809523Y-94517380D01*
X140523809Y-93517380D02*
X140523809Y-94517380D01*
X141666666Y-93517380D02*
X141095238Y-93517380D01*
X141380952Y-93517380D02*
X141380952Y-94517380D01*
X141380952Y-94517380D02*
X141285714Y-94374523D01*
X141285714Y-94374523D02*
X141190476Y-94279285D01*
X141190476Y-94279285D02*
X141095238Y-94231666D01*
X142278095Y-117851428D02*
X142230476Y-117899047D01*
X142230476Y-117899047D02*
X142135238Y-118041904D01*
X142135238Y-118041904D02*
X142087619Y-118137142D01*
X142087619Y-118137142D02*
X142040000Y-118280000D01*
X142040000Y-118280000D02*
X141992381Y-118518095D01*
X141992381Y-118518095D02*
X141992381Y-118708571D01*
X141992381Y-118708571D02*
X142040000Y-118946666D01*
X142040000Y-118946666D02*
X142087619Y-119089523D01*
X142087619Y-119089523D02*
X142135238Y-119184761D01*
X142135238Y-119184761D02*
X142230476Y-119327619D01*
X142230476Y-119327619D02*
X142278095Y-119375238D01*
X142659048Y-118613333D02*
X143420953Y-118613333D01*
X143040000Y-118232380D02*
X143040000Y-118994285D01*
X143801905Y-117851428D02*
X143849524Y-117899047D01*
X143849524Y-117899047D02*
X143944762Y-118041904D01*
X143944762Y-118041904D02*
X143992381Y-118137142D01*
X143992381Y-118137142D02*
X144040000Y-118280000D01*
X144040000Y-118280000D02*
X144087619Y-118518095D01*
X144087619Y-118518095D02*
X144087619Y-118708571D01*
X144087619Y-118708571D02*
X144040000Y-118946666D01*
X144040000Y-118946666D02*
X143992381Y-119089523D01*
X143992381Y-119089523D02*
X143944762Y-119184761D01*
X143944762Y-119184761D02*
X143849524Y-119327619D01*
X143849524Y-119327619D02*
X143801905Y-119375238D01*
X142278095Y-63241428D02*
X142230476Y-63289047D01*
X142230476Y-63289047D02*
X142135238Y-63431904D01*
X142135238Y-63431904D02*
X142087619Y-63527142D01*
X142087619Y-63527142D02*
X142040000Y-63670000D01*
X142040000Y-63670000D02*
X141992381Y-63908095D01*
X141992381Y-63908095D02*
X141992381Y-64098571D01*
X141992381Y-64098571D02*
X142040000Y-64336666D01*
X142040000Y-64336666D02*
X142087619Y-64479523D01*
X142087619Y-64479523D02*
X142135238Y-64574761D01*
X142135238Y-64574761D02*
X142230476Y-64717619D01*
X142230476Y-64717619D02*
X142278095Y-64765238D01*
X142659048Y-64003333D02*
X143420953Y-64003333D01*
X143801905Y-63241428D02*
X143849524Y-63289047D01*
X143849524Y-63289047D02*
X143944762Y-63431904D01*
X143944762Y-63431904D02*
X143992381Y-63527142D01*
X143992381Y-63527142D02*
X144040000Y-63670000D01*
X144040000Y-63670000D02*
X144087619Y-63908095D01*
X144087619Y-63908095D02*
X144087619Y-64098571D01*
X144087619Y-64098571D02*
X144040000Y-64336666D01*
X144040000Y-64336666D02*
X143992381Y-64479523D01*
X143992381Y-64479523D02*
X143944762Y-64574761D01*
X143944762Y-64574761D02*
X143849524Y-64717619D01*
X143849524Y-64717619D02*
X143801905Y-64765238D01*
%TO.C,BT2*%
X119365714Y-88838809D02*
X119222857Y-88886428D01*
X119222857Y-88886428D02*
X119175238Y-88934047D01*
X119175238Y-88934047D02*
X119127619Y-89029285D01*
X119127619Y-89029285D02*
X119127619Y-89172142D01*
X119127619Y-89172142D02*
X119175238Y-89267380D01*
X119175238Y-89267380D02*
X119222857Y-89315000D01*
X119222857Y-89315000D02*
X119318095Y-89362619D01*
X119318095Y-89362619D02*
X119699047Y-89362619D01*
X119699047Y-89362619D02*
X119699047Y-88362619D01*
X119699047Y-88362619D02*
X119365714Y-88362619D01*
X119365714Y-88362619D02*
X119270476Y-88410238D01*
X119270476Y-88410238D02*
X119222857Y-88457857D01*
X119222857Y-88457857D02*
X119175238Y-88553095D01*
X119175238Y-88553095D02*
X119175238Y-88648333D01*
X119175238Y-88648333D02*
X119222857Y-88743571D01*
X119222857Y-88743571D02*
X119270476Y-88791190D01*
X119270476Y-88791190D02*
X119365714Y-88838809D01*
X119365714Y-88838809D02*
X119699047Y-88838809D01*
X118841904Y-88362619D02*
X118270476Y-88362619D01*
X118556190Y-89362619D02*
X118556190Y-88362619D01*
X117984761Y-88457857D02*
X117937142Y-88410238D01*
X117937142Y-88410238D02*
X117841904Y-88362619D01*
X117841904Y-88362619D02*
X117603809Y-88362619D01*
X117603809Y-88362619D02*
X117508571Y-88410238D01*
X117508571Y-88410238D02*
X117460952Y-88457857D01*
X117460952Y-88457857D02*
X117413333Y-88553095D01*
X117413333Y-88553095D02*
X117413333Y-88648333D01*
X117413333Y-88648333D02*
X117460952Y-88791190D01*
X117460952Y-88791190D02*
X118032380Y-89362619D01*
X118032380Y-89362619D02*
X117413333Y-89362619D01*
X116801904Y-119638571D02*
X116849523Y-119590952D01*
X116849523Y-119590952D02*
X116944761Y-119448095D01*
X116944761Y-119448095D02*
X116992380Y-119352857D01*
X116992380Y-119352857D02*
X117039999Y-119210000D01*
X117039999Y-119210000D02*
X117087618Y-118971904D01*
X117087618Y-118971904D02*
X117087618Y-118781428D01*
X117087618Y-118781428D02*
X117039999Y-118543333D01*
X117039999Y-118543333D02*
X116992380Y-118400476D01*
X116992380Y-118400476D02*
X116944761Y-118305238D01*
X116944761Y-118305238D02*
X116849523Y-118162380D01*
X116849523Y-118162380D02*
X116801904Y-118114761D01*
X116420951Y-118876666D02*
X115659047Y-118876666D01*
X115278094Y-119638571D02*
X115230475Y-119590952D01*
X115230475Y-119590952D02*
X115135237Y-119448095D01*
X115135237Y-119448095D02*
X115087618Y-119352857D01*
X115087618Y-119352857D02*
X115039999Y-119210000D01*
X115039999Y-119210000D02*
X114992380Y-118971904D01*
X114992380Y-118971904D02*
X114992380Y-118781428D01*
X114992380Y-118781428D02*
X115039999Y-118543333D01*
X115039999Y-118543333D02*
X115087618Y-118400476D01*
X115087618Y-118400476D02*
X115135237Y-118305238D01*
X115135237Y-118305238D02*
X115230475Y-118162380D01*
X115230475Y-118162380D02*
X115278094Y-118114761D01*
X116801904Y-65028571D02*
X116849523Y-64980952D01*
X116849523Y-64980952D02*
X116944761Y-64838095D01*
X116944761Y-64838095D02*
X116992380Y-64742857D01*
X116992380Y-64742857D02*
X117039999Y-64600000D01*
X117039999Y-64600000D02*
X117087618Y-64361904D01*
X117087618Y-64361904D02*
X117087618Y-64171428D01*
X117087618Y-64171428D02*
X117039999Y-63933333D01*
X117039999Y-63933333D02*
X116992380Y-63790476D01*
X116992380Y-63790476D02*
X116944761Y-63695238D01*
X116944761Y-63695238D02*
X116849523Y-63552380D01*
X116849523Y-63552380D02*
X116801904Y-63504761D01*
X116420951Y-64266666D02*
X115659047Y-64266666D01*
X116039999Y-64647619D02*
X116039999Y-63885714D01*
X115278094Y-65028571D02*
X115230475Y-64980952D01*
X115230475Y-64980952D02*
X115135237Y-64838095D01*
X115135237Y-64838095D02*
X115087618Y-64742857D01*
X115087618Y-64742857D02*
X115039999Y-64600000D01*
X115039999Y-64600000D02*
X114992380Y-64361904D01*
X114992380Y-64361904D02*
X114992380Y-64171428D01*
X114992380Y-64171428D02*
X115039999Y-63933333D01*
X115039999Y-63933333D02*
X115087618Y-63790476D01*
X115087618Y-63790476D02*
X115135237Y-63695238D01*
X115135237Y-63695238D02*
X115230475Y-63552380D01*
X115230475Y-63552380D02*
X115278094Y-63504761D01*
D12*
%TO.C,C3*%
X117820000Y-118357712D02*
X118270000Y-118357712D01*
X118045000Y-118132712D02*
X118045000Y-118582712D01*
X118320000Y-118550259D02*
G75*
G03*
X120440000Y-118550259I1060000J-2119741D01*
G01*
%TO.C,C2*%
X111710000Y-118357712D02*
X112160000Y-118357712D01*
X111935000Y-118132712D02*
X111935000Y-118582712D01*
X112210000Y-118550259D02*
G75*
G03*
X114330000Y-118550259I1060000J-2119741D01*
G01*
%TO.C,C1*%
X105600000Y-118357712D02*
X106050000Y-118357712D01*
X105825000Y-118132712D02*
X105825000Y-118582712D01*
X106100000Y-118550259D02*
G75*
G03*
X108220000Y-118550259I1060000J-2119741D01*
G01*
%TO.C,U1*%
X151070000Y-124460000D02*
X151070000Y-126910000D01*
X150740000Y-118730000D02*
X138800000Y-118730000D01*
X138800000Y-118730000D02*
X138800000Y-126580000D01*
X151070000Y-126910000D02*
X148740000Y-126910000D01*
X150740000Y-126580000D02*
X150740000Y-118730000D01*
X138800000Y-126580000D02*
X150740000Y-126580000D01*
D11*
%TO.C,BT1*%
X129940000Y-116440000D02*
X156140000Y-116440000D01*
X156140000Y-116440000D02*
X156140000Y-66440000D01*
X156140000Y-66440000D02*
X129940000Y-66440000D01*
X129940000Y-66440000D02*
X129940000Y-116440000D01*
%TO.C,BT2*%
X129140000Y-66440000D02*
X102940000Y-66440000D01*
X102940000Y-66440000D02*
X102940000Y-116440000D01*
X102940000Y-116440000D02*
X129140000Y-116440000D01*
X129140000Y-116440000D02*
X129140000Y-66440000D01*
%TD*%
M02*
