%TF.GenerationSoftware,KiCad,Pcbnew,7.0.1-0*%
%TF.CreationDate,2023-04-24T12:32:45-04:00*%
%TF.ProjectId,tempLogger_clientPCB,74656d70-4c6f-4676-9765-725f636c6965,rev?*%
%TF.SameCoordinates,Original*%
%TF.FileFunction,Soldermask,Top*%
%TF.FilePolarity,Negative*%
%FSLAX46Y46*%
G04 Gerber Fmt 4.6, Leading zero omitted, Abs format (unit mm)*
G04 Created by KiCad (PCBNEW 7.0.1-0) date 2023-04-24 12:32:45*
%MOMM*%
%LPD*%
G01*
G04 APERTURE LIST*
G04 Aperture macros list*
%AMRoundRect*
0 Rectangle with rounded corners*
0 $1 Rounding radius*
0 $2 $3 $4 $5 $6 $7 $8 $9 X,Y pos of 4 corners*
0 Add a 4 corners polygon primitive as box body*
4,1,4,$2,$3,$4,$5,$6,$7,$8,$9,$2,$3,0*
0 Add four circle primitives for the rounded corners*
1,1,$1+$1,$2,$3*
1,1,$1+$1,$4,$5*
1,1,$1+$1,$6,$7*
1,1,$1+$1,$8,$9*
0 Add four rect primitives between the rounded corners*
20,1,$1+$1,$2,$3,$4,$5,0*
20,1,$1+$1,$4,$5,$6,$7,0*
20,1,$1+$1,$6,$7,$8,$9,0*
20,1,$1+$1,$8,$9,$2,$3,0*%
G04 Aperture macros list end*
%ADD10R,1.600000X1.600000*%
%ADD11C,1.600000*%
%ADD12R,1.500000X2.500000*%
%ADD13O,1.500000X2.500000*%
%ADD14R,2.200000X2.200000*%
%ADD15O,2.200000X2.200000*%
%ADD16C,2.200000*%
%ADD17C,2.100000*%
%ADD18R,2.100000X2.100000*%
%ADD19C,1.524000*%
%ADD20C,1.400000*%
%ADD21O,1.400000X1.400000*%
%ADD22C,2.600000*%
%ADD23RoundRect,0.650000X-0.650000X-0.650000X0.650000X-0.650000X0.650000X0.650000X-0.650000X0.650000X0*%
%ADD24RoundRect,0.418500X-1.612500X-0.418500X1.612500X-0.418500X1.612500X0.418500X-1.612500X0.418500X0*%
%ADD25RoundRect,0.418500X1.612500X0.418500X-1.612500X0.418500X-1.612500X-0.418500X1.612500X-0.418500X0*%
G04 APERTURE END LIST*
D10*
%TO.C,C3*%
X119380000Y-119420000D03*
D11*
X119380000Y-121920000D03*
%TD*%
D10*
%TO.C,C2*%
X113270000Y-119420000D03*
D11*
X113270000Y-121920000D03*
%TD*%
D10*
%TO.C,C1*%
X107160000Y-119420000D03*
D11*
X107160000Y-121920000D03*
%TD*%
D12*
%TO.C,U1*%
X147320000Y-124460000D03*
D13*
X144780000Y-124460000D03*
X142240000Y-124460000D03*
%TD*%
D14*
%TO.C,D1*%
X124460000Y-119380000D03*
D15*
X134620000Y-119380000D03*
%TD*%
D14*
%TO.C,DS18B20*%
X106680000Y-111760000D03*
D16*
X109220000Y-111760000D03*
X111760000Y-111760000D03*
X114300000Y-111760000D03*
X116840000Y-111760000D03*
X119380000Y-111760000D03*
%TD*%
D17*
%TO.C,SnowPinger1*%
X119380000Y-60960000D03*
X121920000Y-60960000D03*
D18*
X124460000Y-60960000D03*
%TD*%
D19*
%TO.C,MCU1*%
X153700000Y-76200000D03*
X153700000Y-78740000D03*
X153700000Y-81280000D03*
X153700000Y-83820000D03*
X130840000Y-99060000D03*
X153700000Y-86360000D03*
X153700000Y-88900000D03*
X130840000Y-104140000D03*
X153700000Y-91440000D03*
X153700000Y-93980000D03*
X153700000Y-96520000D03*
X153700000Y-99060000D03*
X153700000Y-101600000D03*
X153700000Y-104140000D03*
X153700000Y-106680000D03*
X153700000Y-109220000D03*
X130840000Y-73660000D03*
X130840000Y-76200000D03*
X130840000Y-78740000D03*
X130840000Y-81280000D03*
X130840000Y-83820000D03*
X130840000Y-86360000D03*
X153700000Y-114300000D03*
X153700000Y-111760000D03*
X130840000Y-93980000D03*
X130840000Y-88900000D03*
X130840000Y-91440000D03*
X153700000Y-73660000D03*
X153700000Y-71120000D03*
X130840000Y-96520000D03*
X130840000Y-71120000D03*
X130840000Y-111760000D03*
X130840000Y-68580000D03*
X130840000Y-109220000D03*
X130840000Y-114300000D03*
X153700000Y-68580000D03*
X130840000Y-101600000D03*
X130840000Y-106680000D03*
%TD*%
%TO.C,\u00B5SD1*%
X106150000Y-105156000D03*
X108690000Y-105156000D03*
X111230000Y-105156000D03*
X113770000Y-105156000D03*
X116310000Y-105156000D03*
X118850000Y-105156000D03*
X121390000Y-105156000D03*
X123930000Y-105156000D03*
%TD*%
D20*
%TO.C,R1*%
X124460000Y-107950000D03*
D21*
X124460000Y-115570000D03*
%TD*%
D22*
%TO.C,JST1*%
X129540000Y-124460000D03*
D23*
X124460000Y-124460000D03*
%TD*%
D24*
%TO.C,BT1*%
X143040000Y-66440000D03*
X143040000Y-116440000D03*
%TD*%
D25*
%TO.C,BT2*%
X116040000Y-116440000D03*
X116040000Y-66440000D03*
%TD*%
M02*
