M48
; DRILL file {KiCad 7.0.1-0} date 2023 April 25, Tuesday 09:41:06
; FORMAT={-:-/ absolute / inch / decimal}
; #@! TF.CreationDate,2023-04-25T09:41:06-04:00
; #@! TF.GenerationSoftware,Kicad,Pcbnew,7.0.1-0
; #@! TF.FileFunction,Plated,1,2,PTH
FMAT,2
INCH
; #@! TA.AperFunction,Plated,PTH,ComponentDrill
T1C0.0276
; #@! TA.AperFunction,Plated,PTH,ComponentDrill
T2C0.0310
; #@! TA.AperFunction,Plated,PTH,ComponentDrill
T3C0.0315
; #@! TA.AperFunction,Plated,PTH,ComponentDrill
T4C0.0354
; #@! TA.AperFunction,Plated,PTH,ComponentDrill
T5C0.0394
; #@! TA.AperFunction,Plated,PTH,ComponentDrill
T6C0.0433
; #@! TA.AperFunction,Plated,PTH,ComponentDrill
T7C0.0512
%
G90
G05
T1
X4.9Y-4.25
X4.9Y-4.55
T3
X4.2189Y-4.7016
X4.2189Y-4.8
X4.4594Y-4.7016
X4.4594Y-4.8
X4.7Y-4.7016
X4.7Y-4.8
T4
X4.1791Y-4.14
X4.2791Y-4.14
X4.3791Y-4.14
X4.4791Y-4.14
X4.5791Y-4.14
X4.6791Y-4.14
X4.7791Y-4.14
X4.8791Y-4.14
X5.1512Y-2.7
X5.1512Y-2.8
X5.1512Y-2.9
X5.1512Y-3.0
X5.1512Y-3.1
X5.1512Y-3.2
X5.1512Y-3.3
X5.1512Y-3.4
X5.1512Y-3.5
X5.1512Y-3.6
X5.1512Y-3.7
X5.1512Y-3.8
X5.1512Y-3.9
X5.1512Y-4.0
X5.1512Y-4.1
X5.1512Y-4.2
X5.1512Y-4.3
X5.1512Y-4.4
X5.1512Y-4.5
X6.0512Y-2.7
X6.0512Y-2.8
X6.0512Y-2.9
X6.0512Y-3.0
X6.0512Y-3.1
X6.0512Y-3.2
X6.0512Y-3.3
X6.0512Y-3.4
X6.0512Y-3.5
X6.0512Y-3.6
X6.0512Y-3.7
X6.0512Y-3.8
X6.0512Y-3.9
X6.0512Y-4.0
X6.0512Y-4.1
X6.0512Y-4.2
X6.0512Y-4.3
X6.0512Y-4.4
X6.0512Y-4.5
T5
X5.6Y-4.9
X5.7Y-4.9
X5.8Y-4.9
T6
X4.2Y-4.4
X4.3Y-4.4
X4.4Y-4.4
X4.5Y-4.4
X4.6Y-4.4
X4.7Y-2.4
X4.7Y-4.4
X4.8Y-2.4
X4.9Y-2.4
X4.9Y-4.7
X5.3Y-4.7
T7
X4.9Y-4.9
X5.1Y-4.9
T2
G00X4.618Y-2.6157
M15
G01X4.519Y-2.6157
M16
G05
G00X4.618Y-4.5843
M15
G01X4.519Y-4.5843
M16
G05
G00X5.582Y-2.6157
M15
G01X5.681Y-2.6157
M16
G05
G00X5.582Y-4.5843
M15
G01X5.681Y-4.5843
M16
G05
T0
M30
